<mxfile host="Electron" agent="Mozilla/5.0 (Windows NT 10.0; Win64; x64) AppleWebKit/537.36 (KHTML, like Gecko) draw.io/27.0.9 Chrome/134.0.6998.205 Electron/35.4.0 Safari/537.36" version="27.0.9">
  <diagram name="Page-1" id="YoF3n2YvAzl4WthQd7fC">
    <mxGraphModel dx="1826" dy="1761" grid="1" gridSize="10" guides="1" tooltips="1" connect="1" arrows="1" fold="1" page="0" pageScale="1" pageWidth="850" pageHeight="1100" math="0" shadow="0">
      <root>
        <mxCell id="0" />
        <mxCell id="1" parent="0" />
        <mxCell id="73NGE3K4LZWdYXeXNWMm-1" value="&lt;font style=&quot;font-size: 29px;&quot;&gt;Data Flow Diagram&lt;/font&gt;" style="text;html=1;align=center;verticalAlign=middle;whiteSpace=wrap;rounded=0;fontStyle=1" parent="1" vertex="1">
          <mxGeometry x="-260" y="-520" width="320" height="30" as="geometry" />
        </mxCell>
        <mxCell id="73NGE3K4LZWdYXeXNWMm-2" value="" style="rounded=0;whiteSpace=wrap;html=1;fillColor=none;dashed=1;" parent="1" vertex="1">
          <mxGeometry x="-260" y="-400" width="150" height="570" as="geometry" />
        </mxCell>
        <mxCell id="73NGE3K4LZWdYXeXNWMm-3" value="&lt;font style=&quot;font-size: 16px;&quot;&gt;Sources&lt;/font&gt;" style="text;html=1;align=center;verticalAlign=middle;whiteSpace=wrap;rounded=0;fillColor=default;" parent="1" vertex="1">
          <mxGeometry x="-220" y="-417" width="60" height="30" as="geometry" />
        </mxCell>
        <mxCell id="73NGE3K4LZWdYXeXNWMm-16" style="edgeStyle=orthogonalEdgeStyle;rounded=0;orthogonalLoop=1;jettySize=auto;html=1;entryX=0;entryY=0.75;entryDx=0;entryDy=0;" parent="1" source="73NGE3K4LZWdYXeXNWMm-4" target="73NGE3K4LZWdYXeXNWMm-9" edge="1">
          <mxGeometry relative="1" as="geometry" />
        </mxCell>
        <mxCell id="73NGE3K4LZWdYXeXNWMm-17" style="edgeStyle=orthogonalEdgeStyle;rounded=0;orthogonalLoop=1;jettySize=auto;html=1;entryX=0;entryY=0.5;entryDx=0;entryDy=0;" parent="1" source="73NGE3K4LZWdYXeXNWMm-4" target="73NGE3K4LZWdYXeXNWMm-12" edge="1">
          <mxGeometry relative="1" as="geometry" />
        </mxCell>
        <mxCell id="73NGE3K4LZWdYXeXNWMm-4" value="CRM" style="image;aspect=fixed;html=1;points=[];align=center;fontSize=12;image=img/lib/azure2/general/Folder_Blank.svg;fontStyle=1" parent="1" vertex="1">
          <mxGeometry x="-230" y="-210" width="69" height="56.00000000000001" as="geometry" />
        </mxCell>
        <mxCell id="73NGE3K4LZWdYXeXNWMm-24" style="edgeStyle=orthogonalEdgeStyle;rounded=0;orthogonalLoop=1;jettySize=auto;html=1;" parent="1" source="73NGE3K4LZWdYXeXNWMm-6" target="73NGE3K4LZWdYXeXNWMm-22" edge="1">
          <mxGeometry relative="1" as="geometry" />
        </mxCell>
        <mxCell id="73NGE3K4LZWdYXeXNWMm-25" style="edgeStyle=orthogonalEdgeStyle;rounded=0;orthogonalLoop=1;jettySize=auto;html=1;entryX=0;entryY=0.75;entryDx=0;entryDy=0;" parent="1" source="73NGE3K4LZWdYXeXNWMm-6" target="73NGE3K4LZWdYXeXNWMm-21" edge="1">
          <mxGeometry relative="1" as="geometry" />
        </mxCell>
        <mxCell id="73NGE3K4LZWdYXeXNWMm-26" style="edgeStyle=orthogonalEdgeStyle;rounded=0;orthogonalLoop=1;jettySize=auto;html=1;entryX=0;entryY=0.5;entryDx=0;entryDy=0;" parent="1" source="73NGE3K4LZWdYXeXNWMm-6" target="73NGE3K4LZWdYXeXNWMm-23" edge="1">
          <mxGeometry relative="1" as="geometry" />
        </mxCell>
        <mxCell id="73NGE3K4LZWdYXeXNWMm-6" value="ERP" style="image;aspect=fixed;html=1;points=[];align=center;fontSize=12;image=img/lib/azure2/general/Folder_Blank.svg;fontStyle=1" parent="1" vertex="1">
          <mxGeometry x="-230" y="14" width="69" height="56.00000000000001" as="geometry" />
        </mxCell>
        <mxCell id="73NGE3K4LZWdYXeXNWMm-7" value="" style="rounded=1;whiteSpace=wrap;html=1;fillStyle=hatch;fillColor=#ffe6cc;strokeColor=#d79b00;" parent="1" vertex="1">
          <mxGeometry x="-40" y="-320" width="190" height="490" as="geometry" />
        </mxCell>
        <mxCell id="73NGE3K4LZWdYXeXNWMm-8" value="&lt;b&gt;&lt;font style=&quot;font-size: 13px;&quot;&gt;Bronze Layer&lt;/font&gt;&lt;/b&gt;" style="rounded=1;whiteSpace=wrap;html=1;fillColor=#ffe6cc;strokeColor=#d79b00;" parent="1" vertex="1">
          <mxGeometry x="-40" y="-400" width="180" height="60" as="geometry" />
        </mxCell>
        <mxCell id="HSgdSa0JfU3XPewHmYRZ-9" style="edgeStyle=orthogonalEdgeStyle;rounded=0;orthogonalLoop=1;jettySize=auto;html=1;" parent="1" source="73NGE3K4LZWdYXeXNWMm-9" target="HSgdSa0JfU3XPewHmYRZ-3" edge="1">
          <mxGeometry relative="1" as="geometry" />
        </mxCell>
        <mxCell id="73NGE3K4LZWdYXeXNWMm-9" value="&lt;font style=&quot;font-size: 13px;&quot;&gt;crm_sales_details&lt;/font&gt;" style="rounded=1;whiteSpace=wrap;html=1;fillColor=#ffe6cc;strokeColor=#d79b00;" parent="1" vertex="1">
          <mxGeometry x="-27.87" y="-270" width="165" height="40" as="geometry" />
        </mxCell>
        <mxCell id="HSgdSa0JfU3XPewHmYRZ-10" style="edgeStyle=orthogonalEdgeStyle;rounded=0;orthogonalLoop=1;jettySize=auto;html=1;entryX=0;entryY=0.5;entryDx=0;entryDy=0;" parent="1" source="73NGE3K4LZWdYXeXNWMm-11" target="HSgdSa0JfU3XPewHmYRZ-4" edge="1">
          <mxGeometry relative="1" as="geometry" />
        </mxCell>
        <mxCell id="73NGE3K4LZWdYXeXNWMm-11" value="&lt;font style=&quot;font-size: 13px;&quot;&gt;crm_cust_info&lt;/font&gt;" style="rounded=1;whiteSpace=wrap;html=1;fillColor=#ffe6cc;strokeColor=#d79b00;" parent="1" vertex="1">
          <mxGeometry x="-27.87" y="-202" width="165" height="40" as="geometry" />
        </mxCell>
        <mxCell id="HSgdSa0JfU3XPewHmYRZ-11" style="edgeStyle=orthogonalEdgeStyle;rounded=0;orthogonalLoop=1;jettySize=auto;html=1;entryX=0;entryY=0.5;entryDx=0;entryDy=0;" parent="1" source="73NGE3K4LZWdYXeXNWMm-12" target="HSgdSa0JfU3XPewHmYRZ-5" edge="1">
          <mxGeometry relative="1" as="geometry" />
        </mxCell>
        <mxCell id="73NGE3K4LZWdYXeXNWMm-12" value="&lt;font style=&quot;font-size: 13px;&quot;&gt;crm_prd_info&lt;/font&gt;" style="rounded=1;whiteSpace=wrap;html=1;fillColor=#ffe6cc;strokeColor=#d79b00;" parent="1" vertex="1">
          <mxGeometry x="-27.12" y="-134" width="165" height="40" as="geometry" />
        </mxCell>
        <mxCell id="73NGE3K4LZWdYXeXNWMm-15" style="edgeStyle=orthogonalEdgeStyle;rounded=0;orthogonalLoop=1;jettySize=auto;html=1;entryX=0.048;entryY=0.4;entryDx=0;entryDy=0;entryPerimeter=0;" parent="1" source="73NGE3K4LZWdYXeXNWMm-4" target="73NGE3K4LZWdYXeXNWMm-11" edge="1">
          <mxGeometry relative="1" as="geometry" />
        </mxCell>
        <mxCell id="HSgdSa0JfU3XPewHmYRZ-14" style="edgeStyle=orthogonalEdgeStyle;rounded=0;orthogonalLoop=1;jettySize=auto;html=1;" parent="1" source="73NGE3K4LZWdYXeXNWMm-21" target="HSgdSa0JfU3XPewHmYRZ-6" edge="1">
          <mxGeometry relative="1" as="geometry" />
        </mxCell>
        <mxCell id="73NGE3K4LZWdYXeXNWMm-21" value="&lt;font style=&quot;font-size: 13px;&quot;&gt;erp_cust_az12&lt;/font&gt;" style="rounded=1;whiteSpace=wrap;html=1;fillColor=#ffe6cc;strokeColor=#d79b00;" parent="1" vertex="1">
          <mxGeometry x="-27" y="-46" width="165" height="40" as="geometry" />
        </mxCell>
        <mxCell id="HSgdSa0JfU3XPewHmYRZ-15" style="edgeStyle=orthogonalEdgeStyle;rounded=0;orthogonalLoop=1;jettySize=auto;html=1;" parent="1" source="73NGE3K4LZWdYXeXNWMm-22" target="HSgdSa0JfU3XPewHmYRZ-7" edge="1">
          <mxGeometry relative="1" as="geometry" />
        </mxCell>
        <mxCell id="73NGE3K4LZWdYXeXNWMm-22" value="&lt;font style=&quot;font-size: 13px;&quot;&gt;erp_loc_a101&lt;/font&gt;" style="rounded=1;whiteSpace=wrap;html=1;fillColor=#ffe6cc;strokeColor=#d79b00;" parent="1" vertex="1">
          <mxGeometry x="-27" y="22" width="165" height="40" as="geometry" />
        </mxCell>
        <mxCell id="HSgdSa0JfU3XPewHmYRZ-16" style="edgeStyle=orthogonalEdgeStyle;rounded=0;orthogonalLoop=1;jettySize=auto;html=1;" parent="1" source="73NGE3K4LZWdYXeXNWMm-23" target="HSgdSa0JfU3XPewHmYRZ-8" edge="1">
          <mxGeometry relative="1" as="geometry" />
        </mxCell>
        <mxCell id="73NGE3K4LZWdYXeXNWMm-23" value="erp_px_cat_g1v2" style="rounded=1;whiteSpace=wrap;html=1;fillColor=#ffe6cc;strokeColor=#d79b00;" parent="1" vertex="1">
          <mxGeometry x="-26.75" y="90" width="165" height="40" as="geometry" />
        </mxCell>
        <mxCell id="HSgdSa0JfU3XPewHmYRZ-1" value="" style="rounded=1;whiteSpace=wrap;html=1;fillStyle=hatch;fillColor=#f5f5f5;strokeColor=#666666;fontColor=#333333;" parent="1" vertex="1">
          <mxGeometry x="280" y="-320" width="190" height="490" as="geometry" />
        </mxCell>
        <mxCell id="HSgdSa0JfU3XPewHmYRZ-2" value="&lt;b&gt;&lt;font style=&quot;font-size: 13px;&quot;&gt;Silver Layer&lt;/font&gt;&lt;/b&gt;" style="rounded=1;whiteSpace=wrap;html=1;fillColor=#f5f5f5;strokeColor=#666666;fontColor=#333333;" parent="1" vertex="1">
          <mxGeometry x="280" y="-400" width="180" height="60" as="geometry" />
        </mxCell>
        <mxCell id="T92NCElZksXfUfhJz7G4-12" style="edgeStyle=orthogonalEdgeStyle;rounded=0;orthogonalLoop=1;jettySize=auto;html=1;" edge="1" parent="1" source="HSgdSa0JfU3XPewHmYRZ-3" target="T92NCElZksXfUfhJz7G4-3">
          <mxGeometry relative="1" as="geometry" />
        </mxCell>
        <mxCell id="HSgdSa0JfU3XPewHmYRZ-3" value="&lt;font style=&quot;font-size: 13px;&quot;&gt;crm_sales_details&lt;/font&gt;" style="rounded=1;whiteSpace=wrap;html=1;fillColor=#f5f5f5;strokeColor=#666666;fontColor=#333333;" parent="1" vertex="1">
          <mxGeometry x="292.13" y="-270" width="165" height="40" as="geometry" />
        </mxCell>
        <mxCell id="HSgdSa0JfU3XPewHmYRZ-4" value="&lt;font style=&quot;font-size: 13px;&quot;&gt;crm_cust_info&lt;/font&gt;" style="rounded=1;whiteSpace=wrap;html=1;fillColor=#f5f5f5;strokeColor=#666666;fontColor=#333333;" parent="1" vertex="1">
          <mxGeometry x="292.13" y="-202" width="165" height="40" as="geometry" />
        </mxCell>
        <mxCell id="HSgdSa0JfU3XPewHmYRZ-5" value="&lt;font style=&quot;font-size: 13px;&quot;&gt;crm_prd_info&lt;/font&gt;" style="rounded=1;whiteSpace=wrap;html=1;fillColor=#f5f5f5;strokeColor=#666666;fontColor=#333333;" parent="1" vertex="1">
          <mxGeometry x="292.88" y="-134" width="165" height="40" as="geometry" />
        </mxCell>
        <mxCell id="HSgdSa0JfU3XPewHmYRZ-6" value="&lt;font style=&quot;font-size: 13px;&quot;&gt;erp_cust_az12&lt;/font&gt;" style="rounded=1;whiteSpace=wrap;html=1;fillColor=#f5f5f5;strokeColor=#666666;fontColor=#333333;" parent="1" vertex="1">
          <mxGeometry x="293" y="-46" width="165" height="40" as="geometry" />
        </mxCell>
        <mxCell id="HSgdSa0JfU3XPewHmYRZ-7" value="&lt;font style=&quot;font-size: 13px;&quot;&gt;erp_loc_a101&lt;/font&gt;" style="rounded=1;whiteSpace=wrap;html=1;fillColor=#f5f5f5;strokeColor=#666666;fontColor=#333333;" parent="1" vertex="1">
          <mxGeometry x="293" y="22" width="165" height="40" as="geometry" />
        </mxCell>
        <mxCell id="HSgdSa0JfU3XPewHmYRZ-8" value="erp_px_cat_g1v2" style="rounded=1;whiteSpace=wrap;html=1;fillColor=#f5f5f5;strokeColor=#666666;fontColor=#333333;" parent="1" vertex="1">
          <mxGeometry x="293.25" y="90" width="165" height="40" as="geometry" />
        </mxCell>
        <mxCell id="T92NCElZksXfUfhJz7G4-1" value="" style="rounded=1;whiteSpace=wrap;html=1;fillStyle=hatch;fillColor=#fff2cc;strokeColor=#d6b656;" vertex="1" parent="1">
          <mxGeometry x="540" y="-320" width="190" height="490" as="geometry" />
        </mxCell>
        <mxCell id="T92NCElZksXfUfhJz7G4-2" value="&lt;b&gt;&lt;font style=&quot;font-size: 13px;&quot;&gt;Gold Layer&lt;/font&gt;&lt;/b&gt;" style="rounded=1;whiteSpace=wrap;html=1;fillColor=#fff2cc;strokeColor=#d6b656;" vertex="1" parent="1">
          <mxGeometry x="540" y="-400" width="180" height="60" as="geometry" />
        </mxCell>
        <mxCell id="T92NCElZksXfUfhJz7G4-3" value="&lt;font style=&quot;font-size: 13px;&quot;&gt;fact_sales&lt;/font&gt;" style="rounded=1;whiteSpace=wrap;html=1;fillColor=#fff2cc;strokeColor=#d6b656;" vertex="1" parent="1">
          <mxGeometry x="547.5" y="-270" width="165" height="40" as="geometry" />
        </mxCell>
        <mxCell id="T92NCElZksXfUfhJz7G4-4" value="&lt;font style=&quot;font-size: 13px;&quot;&gt;dim_customers&lt;/font&gt;" style="rounded=1;whiteSpace=wrap;html=1;fillColor=#fff2cc;strokeColor=#d6b656;" vertex="1" parent="1">
          <mxGeometry x="552.12" y="-80" width="165" height="40" as="geometry" />
        </mxCell>
        <mxCell id="T92NCElZksXfUfhJz7G4-5" value="&lt;font style=&quot;font-size: 13px;&quot;&gt;dim_product&lt;/font&gt;" style="rounded=1;whiteSpace=wrap;html=1;fillColor=#fff2cc;strokeColor=#d6b656;" vertex="1" parent="1">
          <mxGeometry x="552.87" y="-12" width="165" height="40" as="geometry" />
        </mxCell>
        <mxCell id="T92NCElZksXfUfhJz7G4-18" value="" style="endArrow=classic;html=1;rounded=0;entryX=0;entryY=0.5;entryDx=0;entryDy=0;exitX=1;exitY=0.5;exitDx=0;exitDy=0;jumpStyle=gap;" edge="1" parent="1" source="HSgdSa0JfU3XPewHmYRZ-5" target="T92NCElZksXfUfhJz7G4-5">
          <mxGeometry width="50" height="50" relative="1" as="geometry">
            <mxPoint x="460" y="-110" as="sourcePoint" />
            <mxPoint x="500" y="-160" as="targetPoint" />
          </mxGeometry>
        </mxCell>
        <mxCell id="T92NCElZksXfUfhJz7G4-19" value="" style="endArrow=classic;html=1;rounded=0;entryX=0;entryY=0.5;entryDx=0;entryDy=0;exitX=1;exitY=0.5;exitDx=0;exitDy=0;jumpStyle=gap;" edge="1" parent="1">
          <mxGeometry width="50" height="50" relative="1" as="geometry">
            <mxPoint x="458.25" y="-190" as="sourcePoint" />
            <mxPoint x="553.25" y="-68" as="targetPoint" />
          </mxGeometry>
        </mxCell>
        <mxCell id="T92NCElZksXfUfhJz7G4-20" value="" style="endArrow=classic;html=1;rounded=0;entryX=0;entryY=0.5;entryDx=0;entryDy=0;exitX=1;exitY=0.5;exitDx=0;exitDy=0;jumpStyle=gap;" edge="1" parent="1" source="HSgdSa0JfU3XPewHmYRZ-8" target="T92NCElZksXfUfhJz7G4-5">
          <mxGeometry width="50" height="50" relative="1" as="geometry">
            <mxPoint x="530" y="110" as="sourcePoint" />
            <mxPoint x="625" y="232" as="targetPoint" />
          </mxGeometry>
        </mxCell>
        <mxCell id="T92NCElZksXfUfhJz7G4-21" value="" style="endArrow=classic;html=1;rounded=0;entryX=0;entryY=0.5;entryDx=0;entryDy=0;exitX=1;exitY=0.5;exitDx=0;exitDy=0;jumpStyle=gap;" edge="1" parent="1" target="T92NCElZksXfUfhJz7G4-4">
          <mxGeometry width="50" height="50" relative="1" as="geometry">
            <mxPoint x="457.12" y="52" as="sourcePoint" />
            <mxPoint x="552.12" y="-50" as="targetPoint" />
          </mxGeometry>
        </mxCell>
        <mxCell id="T92NCElZksXfUfhJz7G4-22" value="" style="endArrow=classic;html=1;rounded=0;entryX=0;entryY=0.5;entryDx=0;entryDy=0;exitX=1;exitY=0.25;exitDx=0;exitDy=0;jumpStyle=gap;" edge="1" parent="1" source="HSgdSa0JfU3XPewHmYRZ-6" target="T92NCElZksXfUfhJz7G4-4">
          <mxGeometry width="50" height="50" relative="1" as="geometry">
            <mxPoint x="455.62" y="-25" as="sourcePoint" />
            <mxPoint x="547.5" y="-140" as="targetPoint" />
          </mxGeometry>
        </mxCell>
      </root>
    </mxGraphModel>
  </diagram>
</mxfile>
